<!-- <svg xmlns="http://www.w3.org/2000/svg" viewBox="0 0 48 48"><title>Food delivery</title><g id="Food_delivery" data-name="Food delivery"><path d="M15,5a1,1,0,1,0-.71-1.71A1,1,0,0,0,15,5Z"/><path d="M9.47,21.85a1,1,0,0,0,1.06,0C10.71,21.73,15,19,15,14.75A4.88,4.88,0,0,0,10,10a4.88,4.88,0,0,0-5,4.75C5,19,9.29,21.73,9.47,21.85ZM10,12c3.55,0,4.4,4.33,0,7.77C5.61,16.34,6.44,12,10,12Z"/><path d="M41.93,21A8,8,0,0,0,35,14.07a1,1,0,1,0-2,0A8,8,0,0,0,26.07,21,1,1,0,1,0,26,23c.31,0,.1-.48,1,3.24A1,1,0,0,0,28,27H40a1,1,0,0,0,1-.76L41.78,23C43.44,23,43.32,21,41.93,21ZM34,16a6,6,0,0,1,5.92,5H28.08A6,6,0,0,1,34,16Zm5.22,9H28.78l-.5-2H39.72Z"/><path d="M43,9H29V4a4,4,0,0,0-4-4H5A4,4,0,0,0,1,4V44a4,4,0,0,0,4,4H25a4,4,0,0,0,4-4V31.66l.92-.66H43a4,4,0,0,0,4-4V13A4,4,0,0,0,43,9ZM5,2H25a2,2,0,0,1,2,2V5c-9.5,0-9.56-.24-9.92.61a2.26,2.26,0,0,1-4.16,0C12.56,4.77,12.47,5,3,5V4A2,2,0,0,1,5,2ZM25,46H5a2,2,0,0,1-2-2V42H27v2A2,2,0,0,1,25,46Zm2-6H3V7h8.4a4.26,4.26,0,0,0,7.2,0H27V9H25a4,4,0,0,0-4,4V27a4,4,0,0,0,2,3.45V34a1,1,0,0,0,1,1c.43,0,.36,0,3-1.91ZM45,27a2,2,0,0,1-2,2H29.6c-.43,0-.39.05-4.6,3.06,0-2,.09-2.4-.2-2.81-.14-.2-.09-.14-.26-.25-2-1.3-1.54,1.07-1.54-16a2,2,0,0,1,2-2H43a2,2,0,0,1,2,2Z"/><path d="M23,36H8.5a1.5,1.5,0,0,1,0-3h5a3.5,3.5,0,0,0,0-7H12a1,1,0,0,1-1-1V24a1,1,0,0,0-2,0v1a3,3,0,0,0,3,3h1.5a1.5,1.5,0,0,1,0,3h-5a3.5,3.5,0,0,0,0,7H23A1,1,0,0,0,23,36Z"/><path d="M10,16a1,1,0,0,0,0-2A1,1,0,0,0,10,16Z"/></g></svg> -->



<svg xmlns="http://www.w3.org/2000/svg" xmlns:xlink="http://www.w3.org/1999/xlink" aria-hidden="true" role="img" class="iconify iconify--logos" width="31.88" height="32" preserveAspectRatio="xMidYMid meet" viewBox="0 0 256 257">
  <defs>
    <linearGradient id="IconifyId1813088fe1fbc01fb466" x1="-.828%" x2="57.636%" y1="7.652%" y2="78.411%">
      <stop offset="0%" stop-color="#41D1FF"></stop>
      <stop offset="100%" stop-color="#BD34FE"></stop>
    </linearGradient>
    <linearGradient id="IconifyId1813088fe1fbc01fb467" x1="43.376%" x2="50.316%" y1="2.242%" y2="89.03%">
      <stop offset="0%" stop-color="#FFEA83"></stop>
      <stop offset="8.333%" stop-color="#FFDD35"></stop>
      <stop offset="100%" stop-color="#FFA800"></stop>
    </linearGradient>
  </defs>
  <path fill="url(#IconifyId1813088fe1fbc01fb466)" d="M255.153 37.938L134.897 252.976c-2.483 4.44-8.862 4.466-11.382.048L.875 37.958c-2.746-4.814 1.371-10.646 6.827-9.67l120.385 21.517a6.537 6.537 0 0 0 2.322-.004l117.867-21.483c5.438-.991 9.574 4.796 6.877 9.62Z"></path>
  <path fill="url(#IconifyId1813088fe1fbc01fb467)" d="M185.432.063L96.44 17.501a3.268 3.268 0 0 0-2.634 3.014l-5.474 92.456a3.268 3.268 0 0 0 3.997 3.378l24.777-5.718c2.318-.535 4.413 1.507 3.936 3.838l-7.361 36.047c-.495 2.426 1.782 4.5 4.151 3.78l15.304-4.649c2.372-.72 4.652 1.36 4.15 3.788l-11.698 56.621c-.732 3.542 3.979 5.473 5.943 2.437l1.313-2.028l72.516-144.72c1.215-2.423-.88-5.186-3.54-4.672l-25.505 4.922c-2.396.462-4.435-1.77-3.759-4.114l16.646-57.705c.677-2.35-1.37-4.583-3.769-4.113Z"></path>
</svg>
